<svg xmlns="http://www.w3.org/2000/svg" xmlns:xlink="http://www.w3.org/1999/xlink" version="1.1" width="1000" height="1000" viewBox="0 0 1000 1000" xml:space="preserve">
<desc>Created with Fabric.js 3.5.0</desc>
<defs>
</defs>
<rect x="0" y="0" width="100%" height="100%" fill="#ffffff"/>
<g transform="matrix(28.4091 0 0 28.4091 500.0001 500.0001)" id="17824">
<g style="" vector-effect="non-scaling-stroke">
		<g transform="matrix(1 0 0 1 -3 -3)" id="Icons">
<circle style="stroke: rgb(26,86,219); stroke-width: 2; stroke-dasharray: none; stroke-linecap: round; stroke-dashoffset: 0; stroke-linejoin: round; stroke-miterlimit: 10; is-custom-font: none; font-file-url: none; fill: none; fill-rule: nonzero; opacity: 1;" cx="0" cy="0" r="1"/>
</g>
		<g transform="matrix(1 0 0 1 0 2.5)" id="Icons">
<polyline style="stroke: rgb(26,86,219); stroke-width: 2; stroke-dasharray: none; stroke-linecap: round; stroke-dashoffset: 0; stroke-linejoin: round; stroke-miterlimit: 10; is-custom-font: none; font-file-url: none; fill: none; fill-rule: nonzero; opacity: 1;" points="-9,2.5 0,-2.5 4,0.5 9,-2.5 "/>
</g>
		<g transform="matrix(1 0 0 1 2.5 -2.5)" id="Icons">
<polyline style="stroke: rgb(26,86,219); stroke-width: 2; stroke-dasharray: none; stroke-linecap: round; stroke-dashoffset: 0; stroke-linejoin: round; stroke-miterlimit: 10; is-custom-font: none; font-file-url: none; fill: none; fill-rule: nonzero; opacity: 1;" points="11.5,11.5 -11.5,11.5 -11.5,-11.5 "/>
</g>
		<g transform="matrix(1 0 0 1 0 0)" id="Icons">
<polyline style="stroke: rgb(26,86,219); stroke-width: 2; stroke-dasharray: none; stroke-linecap: round; stroke-dashoffset: 0; stroke-linejoin: round; stroke-miterlimit: 10; is-custom-font: none; font-file-url: none; fill: none; fill-rule: nonzero; opacity: 1;" points="-9,-9 9,-9 9,9 "/>
</g>
		<g transform="matrix(1 0 0 1 -11.5 -9)" id="Icons">
<line style="stroke: rgb(26,86,219); stroke-width: 2; stroke-dasharray: none; stroke-linecap: round; stroke-dashoffset: 0; stroke-linejoin: round; stroke-miterlimit: 10; is-custom-font: none; font-file-url: none; fill: none; fill-rule: nonzero; opacity: 1;" x1="2.5" y1="0" x2="-2.5" y2="0"/>
</g>
		<g transform="matrix(1 0 0 1 9 11.5)" id="Icons">
<line style="stroke: rgb(26,86,219); stroke-width: 2; stroke-dasharray: none; stroke-linecap: round; stroke-dashoffset: 0; stroke-linejoin: round; stroke-miterlimit: 10; is-custom-font: none; font-file-url: none; fill: none; fill-rule: nonzero; opacity: 1;" x1="0" y1="2.5" x2="0" y2="-2.5"/>
</g>
</g>
</g>
</svg>